# xmcd CD database file
#
# Track frame offsets:
#	150
#	13990
#	25417
#	37207
#	56512
#	72927
#	90890
#	99702
#	114197
#	125357
#	138947
#	155182
#	166717
#	180247
#	191655
#	203055
#	215132
#	228550
#	240002
#	253100
#	267110
#	286642
#
# Disc length: 4044 seconds
#
# Revision: 1
# Processed by: cddbd v1.5.2PL0 Copyright (c) Steve Scherf et al.
# Submitted via: CDex 1.51
#
DISCID=2d0fca16
DTITLE=Rita Reys - Dutch Jazz Masters - Rita Reys
DYEAR=1999
DGENRE=Jazz
TTITLE0=My funny Valentine
TTITLE1=There'll never be another you
TTITLE2=Taking a change on love
TTITLE3=My one and only love
TTITLE4=You'd be so nice to come home
TTITLE5=Spring can really hang you up the most
TTITLE6=Avalon
TTITLE7=Venus bespied
TTITLE8=Too close for comfort
TTITLE9=I remember Clifford
TTITLE10=Cherokee
TTITLE11=Fly me to the moon
TTITLE12=Basin Street Blues
TTITLE13=Bluesette
TTITLE14=The boy from Ipanema
TTITLE15=It could happen to you
TTITLE16=Sunny
TTITLE17=Come to Scheveningen
TTITLE18=On a clear day you can see forever
TTITLE19=Lazy kitten
TTITLE20=The shadow of your smile
TTITLE21=Moon glow
EXTD=YEAR: 1999
EXTT0=
EXTT1=
EXTT2=
EXTT3=
EXTT4=
EXTT5=
EXTT6=
EXTT7=
EXTT8=
EXTT9=
EXTT10=
EXTT11=
EXTT12=
EXTT13=
EXTT14=
EXTT15=
EXTT16=
EXTT17=
EXTT18=
EXTT19=
EXTT20=
EXTT21=
PLAYORDER=
